<svg width="32" height="32" viewBox="0 0 32 32" fill="none" xmlns="http://www.w3.org/2000/svg">
<rect y="-0.00012207" width="32" height="32" rx="10" fill="white"/>
<rect y="-0.00012207" width="32" height="32" rx="10" fill="url(#paint0_linear_3096_880)"/>
<g filter="url(#filter0_d_3096_880)">
<path fill-rule="evenodd" clip-rule="evenodd" d="M6.58455 11.7735C5.82851 12.3501 5.38483 13.2464 5.38483 14.1972V22.8972C5.38483 24.9173 7.02244 26.5549 9.04254 26.5549H22.9403C24.9604 26.5549 26.598 24.9173 26.598 22.8972V14.1972C26.598 13.2464 26.1543 12.3501 25.3983 11.7735L17.8398 6.00926C16.7481 5.17676 15.2347 5.17676 14.143 6.00926L6.58455 11.7735ZM7.74184 13.844V23.0246C7.74184 23.6979 8.28772 24.2438 8.96108 24.2438H23.0217C23.6951 24.2438 24.241 23.6979 24.241 23.0246V13.844L17.3903 18.6419C16.5504 19.2301 15.4324 19.2301 14.5925 18.6419L7.74184 13.844Z" fill="white"/>
</g>
<defs>
<filter id="filter0_d_3096_880" x="3.75305" y="4.07946" width="24.4767" height="24.4336" filterUnits="userSpaceOnUse" color-interpolation-filters="sRGB">
<feFlood flood-opacity="0" result="BackgroundImageFix"/>
<feColorMatrix in="SourceAlpha" type="matrix" values="0 0 0 0 0 0 0 0 0 0 0 0 0 0 0 0 0 0 127 0" result="hardAlpha"/>
<feOffset dy="0.326356"/>
<feGaussianBlur stdDeviation="0.815891"/>
<feComposite in2="hardAlpha" operator="out"/>
<feColorMatrix type="matrix" values="0 0 0 0 0 0 0 0 0 0 0 0 0 0 0 0 0 0 0.1 0"/>
<feBlend mode="normal" in2="BackgroundImageFix" result="effect1_dropShadow_3096_880"/>
<feBlend mode="normal" in="SourceGraphic" in2="effect1_dropShadow_3096_880" result="shape"/>
</filter>
<linearGradient id="paint0_linear_3096_880" x1="4.4874" y1="28.6376" x2="31.2486" y2="1.55007" gradientUnits="userSpaceOnUse">
<stop stop-color="#1E91FF"/>
<stop offset="0.997303" stop-color="#2ED9FF"/>
</linearGradient>
</defs>
</svg>
