<?xml version="1.0" standalone="no"?>
<!DOCTYPE svg PUBLIC "-//W3C//DTD SVG 20010904//EN"
 "http://www.w3.org/TR/2001/REC-SVG-20010904/DTD/svg10.dtd">
<svg version="1.0" xmlns="http://www.w3.org/2000/svg"
 width="22.000000pt" height="22.000000pt" viewBox="0 0 22.000000 22.000000"
 preserveAspectRatio="xMidYMid meet">

<g transform="translate(0.000000,22.000000) scale(0.100000,-0.100000)"
fill="#000000" stroke="none">
<path d="M43 208 c-31 -15 -46 -60 -41 -119 7 -71 24 -84 108 -84 81 0 99 12
107 73 9 66 -4 110 -37 127 -33 17 -104 19 -137 3z m111 -57 c22 -23 27 -36
24 -67 l-3 -39 -65 0 -65 0 -3 45 c-2 41 1 47 30 68 42 28 49 28 82 -7z"/>
<path d="M60 90 c0 -29 1 -30 50 -30 49 0 50 1 50 30 0 30 0 30 -25 14 -23
-15 -27 -15 -50 0 -25 16 -25 16 -25 -14z"/>
</g>
</svg>
